<?xml version="1.0" encoding="UTF-8"?>
<svg xmlns="http://www.w3.org/2000/svg" width="1280" height="700" viewBox="0 0 1280 700">
  <rect width="1280" height="700" fill="#f8fafc"/>
  <rect x="0" y="92.65" width="1280" height="514.71" fill="#dbeafe" fill-opacity="0.75"/>
  <line x1="0" y1="607.35" x2="1280" y2="607.35" stroke="#94a3b8" stroke-width="1.2"/>
  <line x1="420.33" y1="0" x2="420.33" y2="700" stroke="#94a3b8" stroke-width="1.2"/>
  <polygon points="891.96,605.74 904.17,607.35 1194.75,607.35 1192.30,564.93 1185.03,502.70 1174.66,444.30 1161.61,390.18 1146.34,340.75 1129.34,296.29 1111.11,257.00 1092.31,223.18 1073.55,194.86 1055.28,171.72 1036.23,151.59 1015.34,133.38 994.68,118.84 974.51,107.76 955.05,99.89 936.51,94.95 919.06,92.65 360.94,92.65 343.49,94.95 324.95,99.89 305.49,107.76 285.32,118.84 264.66,133.38 243.77,151.59 224.72,171.72 206.45,194.86 187.69,223.18 168.89,257.00 150.66,296.29 133.66,340.75 118.39,390.18 105.34,444.30 94.97,502.70 87.70,564.93 85.25,607.35 375.83,607.35 388.04,605.74 398.82,602.87 408.13,599.11 415.93,594.82 422.26,590.37 427.15,586.10 428.87,584.29 431.15,544.88 436.21,545.55 443.13,486.28 450.55,488.25 460.41,432.69 470.06,436.59 482.46,385.16 494.18,391.60 508.68,344.67 522.24,354.21 538.37,312.04 553.50,325.22 570.78,287.97 587.17,305.29 604.97,273.26 622.24,295.13 640.00,268.33 657.76,295.13 675.03,273.26 692.83,305.29 709.22,287.97 726.50,325.22 741.63,312.04 757.76,354.21 771.32,344.67 785.82,391.60 797.54,385.16 809.94,436.59 819.59,432.69 829.45,488.25 836.87,486.28 843.79,545.55 848.85,544.88 851.13,584.29 852.85,586.10 857.74,590.37 864.07,594.82 871.87,599.11 881.18,602.87" fill="#f59e0b" fill-opacity="0.68" stroke="#b45309" stroke-width="3.2"/>
  <circle cx="891.96" cy="605.74" r="2.4" fill="#111827"/>
<circle cx="904.17" cy="607.35" r="2.4" fill="#111827"/>
<circle cx="1194.75" cy="607.35" r="2.4" fill="#111827"/>
<circle cx="1192.30" cy="564.93" r="2.4" fill="#111827"/>
<circle cx="1185.03" cy="502.70" r="2.4" fill="#111827"/>
<circle cx="1174.66" cy="444.30" r="2.4" fill="#111827"/>
<circle cx="1161.61" cy="390.18" r="2.4" fill="#111827"/>
<circle cx="1146.34" cy="340.75" r="2.4" fill="#111827"/>
<circle cx="1129.34" cy="296.29" r="2.4" fill="#111827"/>
<circle cx="1111.11" cy="257.00" r="2.4" fill="#111827"/>
<circle cx="1092.31" cy="223.18" r="2.4" fill="#111827"/>
<circle cx="1073.55" cy="194.86" r="2.4" fill="#111827"/>
<circle cx="1055.28" cy="171.72" r="2.4" fill="#111827"/>
<circle cx="1036.23" cy="151.59" r="2.4" fill="#111827"/>
<circle cx="1015.34" cy="133.38" r="2.4" fill="#111827"/>
<circle cx="994.68" cy="118.84" r="2.4" fill="#111827"/>
<circle cx="974.51" cy="107.76" r="2.4" fill="#111827"/>
<circle cx="955.05" cy="99.89" r="2.4" fill="#111827"/>
<circle cx="936.51" cy="94.95" r="2.4" fill="#111827"/>
<circle cx="919.06" cy="92.65" r="2.4" fill="#111827"/>
<circle cx="360.94" cy="92.65" r="2.4" fill="#111827"/>
<circle cx="343.49" cy="94.95" r="2.4" fill="#111827"/>
<circle cx="324.95" cy="99.89" r="2.4" fill="#111827"/>
<circle cx="305.49" cy="107.76" r="2.4" fill="#111827"/>
<circle cx="285.32" cy="118.84" r="2.4" fill="#111827"/>
<circle cx="264.66" cy="133.38" r="2.4" fill="#111827"/>
<circle cx="243.77" cy="151.59" r="2.4" fill="#111827"/>
<circle cx="224.72" cy="171.72" r="2.4" fill="#111827"/>
<circle cx="206.45" cy="194.86" r="2.4" fill="#111827"/>
<circle cx="187.69" cy="223.18" r="2.4" fill="#111827"/>
<circle cx="168.89" cy="257.00" r="2.4" fill="#111827"/>
<circle cx="150.66" cy="296.29" r="2.4" fill="#111827"/>
<circle cx="133.66" cy="340.75" r="2.4" fill="#111827"/>
<circle cx="118.39" cy="390.18" r="2.4" fill="#111827"/>
<circle cx="105.34" cy="444.30" r="2.4" fill="#111827"/>
<circle cx="94.97" cy="502.70" r="2.4" fill="#111827"/>
<circle cx="87.70" cy="564.93" r="2.4" fill="#111827"/>
<circle cx="85.25" cy="607.35" r="2.4" fill="#111827"/>
<circle cx="375.83" cy="607.35" r="2.4" fill="#111827"/>
<circle cx="388.04" cy="605.74" r="2.4" fill="#111827"/>
<circle cx="398.82" cy="602.87" r="2.4" fill="#111827"/>
<circle cx="408.13" cy="599.11" r="2.4" fill="#111827"/>
<circle cx="415.93" cy="594.82" r="2.4" fill="#111827"/>
<circle cx="422.26" cy="590.37" r="2.4" fill="#111827"/>
<circle cx="427.15" cy="586.10" r="2.4" fill="#111827"/>
<circle cx="428.87" cy="584.29" r="2.4" fill="#111827"/>
<circle cx="431.15" cy="544.88" r="2.4" fill="#111827"/>
<circle cx="436.21" cy="545.55" r="2.4" fill="#111827"/>
<circle cx="443.13" cy="486.28" r="2.4" fill="#111827"/>
<circle cx="450.55" cy="488.25" r="2.4" fill="#111827"/>
<circle cx="460.41" cy="432.69" r="2.4" fill="#111827"/>
<circle cx="470.06" cy="436.59" r="2.4" fill="#111827"/>
<circle cx="482.46" cy="385.16" r="2.4" fill="#111827"/>
<circle cx="494.18" cy="391.60" r="2.4" fill="#111827"/>
<circle cx="508.68" cy="344.67" r="2.4" fill="#111827"/>
<circle cx="522.24" cy="354.21" r="2.4" fill="#111827"/>
<circle cx="538.37" cy="312.04" r="2.4" fill="#111827"/>
<circle cx="553.50" cy="325.22" r="2.4" fill="#111827"/>
<circle cx="570.78" cy="287.97" r="2.4" fill="#111827"/>
<circle cx="587.17" cy="305.29" r="2.4" fill="#111827"/>
<circle cx="604.97" cy="273.26" r="2.4" fill="#111827"/>
<circle cx="622.24" cy="295.13" r="2.4" fill="#111827"/>
<circle cx="640.00" cy="268.33" r="2.4" fill="#111827"/>
<circle cx="657.76" cy="295.13" r="2.4" fill="#111827"/>
<circle cx="675.03" cy="273.26" r="2.4" fill="#111827"/>
<circle cx="692.83" cy="305.29" r="2.4" fill="#111827"/>
<circle cx="709.22" cy="287.97" r="2.4" fill="#111827"/>
<circle cx="726.50" cy="325.22" r="2.4" fill="#111827"/>
<circle cx="741.63" cy="312.04" r="2.4" fill="#111827"/>
<circle cx="757.76" cy="354.21" r="2.4" fill="#111827"/>
<circle cx="771.32" cy="344.67" r="2.4" fill="#111827"/>
<circle cx="785.82" cy="391.60" r="2.4" fill="#111827"/>
<circle cx="797.54" cy="385.16" r="2.4" fill="#111827"/>
<circle cx="809.94" cy="436.59" r="2.4" fill="#111827"/>
<circle cx="819.59" cy="432.69" r="2.4" fill="#111827"/>
<circle cx="829.45" cy="488.25" r="2.4" fill="#111827"/>
<circle cx="836.87" cy="486.28" r="2.4" fill="#111827"/>
<circle cx="843.79" cy="545.55" r="2.4" fill="#111827"/>
<circle cx="848.85" cy="544.88" r="2.4" fill="#111827"/>
<circle cx="851.13" cy="584.29" r="2.4" fill="#111827"/>
<circle cx="852.85" cy="586.10" r="2.4" fill="#111827"/>
<circle cx="857.74" cy="590.37" r="2.4" fill="#111827"/>
<circle cx="864.07" cy="594.82" r="2.4" fill="#111827"/>
<circle cx="871.87" cy="599.11" r="2.4" fill="#111827"/>
<circle cx="881.18" cy="602.87" r="2.4" fill="#111827"/>
  <text x="20" y="34" font-family="Menlo, Monaco, monospace" font-size="24" fill="#0f172a">Final sofa polygon (n=18, alpha=0.002, step=10000)</text>
  <text x="20" y="62" font-family="Menlo, Monaco, monospace" font-size="18" fill="#1e293b">area=2.252194  verts=85</text>
</svg>